<?xml version="1.0" encoding="UTF-8"?>
<svg xmlns="http://www.w3.org/2000/svg" xmlns:xlink="http://www.w3.org/1999/xlink" version="1.1" viewBox="0 0 32 32">
  <defs>
    <style>
      .cls-1 {
        font-size: 12px;
      }

      .cls-1, .cls-2 {
        font-family: MyriadPro-Regular, 'Myriad Pro';
      }

      .cls-3, .cls-4 {
        isolation: isolate;
      }

      .cls-2 {
        font-size: 8.5px;
      }

      .cls-5 {
        fill: #fff;
      }

      .cls-6 {
        font-family: GTHaptik-Regular, 'GT Haptik';
        font-size: 4.3px;
      }

      .cls-7 {
        display: none;
      }

      .cls-4 {
        font-family: Helvetica-Bold, Helvetica;
        font-size: 4.1px;
        font-weight: 700;
      }
    </style>
    <path id="path" d="M22,5.6c5.7,3.3,7.7,10.7,4.4,16.4s-10.7,7.7-16.4,4.4c-5.7-3.3-7.7-10.7-4.4-16.4,3.3-5.7,10.7-7.7,16.4-4.4Z"/>
    <path id="path-2" d="M4,16c0-6.6,5.4-12,12-12s12,5.4,12,12-5.4,12-12,12S4,22.6,4,16Z"/>
    <path id="path-3" d="M22,26.4c-5.7,3.3-13.1,1.3-16.4-4.4-3.3-5.7-1.3-13.1,4.4-16.4s13.1-1.3,16.4,4.4,1.3,13.1-4.4,16.4Z"/>
  </defs>
  <!-- Generator: Adobe Illustrator 28.7.1, SVG Export Plug-In . SVG Version: 1.2.0 Build 142)  -->
  <g>
    <g id="Layer_1" class="cls-7">
      <g id="Layer_1-2" data-name="Layer_1" class="cls-7">
        <rect class="cls-5" y="0" width="32" height="32"/>
        <g id="Layer_1-2">
          <g>
            <g id="Ebene_1" class="cls-7">
              <circle cx="16" cy="16" r="8"/>
            </g>
            <g id="Layer_2">
              <g class="cls-3">
                <g class="cls-3">
                  <g class="cls-3">
                    <text class="cls-4" transform="translate(.8 3.8)"><tspan x="0" y="0">TOBIAS</tspan></text>
                  </g>
                </g>
              </g>
              <g class="cls-3">
                <g class="cls-3">
                  <g class="cls-3">
                    <text class="cls-4" transform="translate(17.9 3.8)"><tspan x="0" y="0">ANDRI</tspan></text>
                  </g>
                </g>
                <g class="cls-3">
                  <g class="cls-3">
                    <text class="cls-4" transform="translate(.8 10.9)"><tspan x="0" y="0">GASSER</tspan></text>
                  </g>
                </g>
              </g>
            </g>
          </g>
        </g>
      </g>
      <text>
        <textPath startOffset="33.5%" xlink:href="#path"><tspan class="cls-2"><tspan x="0" y="0">TOBIAS</tspan></tspan>
        </textPath></text>
      <text class="cls-1" transform="translate(209.8 297.6)"><tspan x="0" y="0">info@stefanwuelser.ch</tspan></text>
      <text class="cls-1" transform="translate(209.8 297.6)"><tspan x="0" y="0">info@stefanwuelser.ch</tspan></text>
      <text class="cls-1" transform="translate(209.8 297.6)"><tspan x="0" y="0">info@stefanwuelser.ch</tspan></text>
      <text class="cls-1" transform="translate(209.8 297.6)"><tspan x="0" y="0">info@stefanwuelser.ch</tspan></text>
      <text class="cls-1" transform="translate(209.8 297.6)"><tspan x="0" y="0">info@stefanwuelser.ch</tspan></text>
      <text class="cls-1" transform="translate(209.8 297.6)"><tspan x="0" y="0">info@stefanwuelser.ch</tspan></text>
      <text class="cls-1" transform="translate(209.8 297.6)"><tspan x="0" y="0">info@stefanwuelser.ch</tspan></text>
      <text class="cls-1" transform="translate(209.8 297.6)"><tspan x="0" y="0">info@stefanwuelser.ch</tspan></text>
      <text class="cls-1" transform="translate(209.8 297.6)"><tspan x="0" y="0">info@stefanwuelser.ch</tspan></text>
      <text class="cls-1" transform="translate(209.8 297.6)"><tspan x="0" y="0">info@stefanwuelser.ch</tspan></text>
      <text class="cls-1" transform="translate(209.8 297.6)"><tspan x="0" y="0">info@stefanwuelser.ch</tspan></text>
      <text class="cls-1" transform="translate(209.8 297.6)"><tspan x="0" y="0">info@stefanwuelser.ch</tspan></text>
      <text class="cls-1" transform="translate(209.8 297.6)"><tspan x="0" y="0">info@stefanwuelser.ch</tspan></text>
      <text class="cls-1" transform="translate(209.8 297.6)"><tspan x="0" y="0">info@stefanwuelser.ch</tspan></text>
      <text class="cls-1" transform="translate(209.8 297.6)"><tspan x="0" y="0">info@stefanwuelser.ch</tspan></text>
      <text class="cls-1" transform="translate(209.8 297.6)"><tspan x="0" y="0">info@stefanwuelser.ch</tspan></text>
      <text class="cls-1" transform="translate(209.8 297.6)"><tspan x="0" y="0">info@stefanwuelser.ch</tspan></text>
      <text class="cls-1" transform="translate(209.8 297.6)"><tspan x="0" y="0">info@stefanwuelser.ch</tspan></text>
      <text>
        <textPath startOffset="33.5%" xlink:href="#path-2"><tspan class="cls-2"><tspan x="0" y="0">GASSER</tspan></tspan>
        </textPath></text>
      <text>
        <textPath startOffset="33.5%" xlink:href="#path-3"><tspan class="cls-2"><tspan x="0" y="0">ANDRI</tspan></tspan>
        </textPath></text>
      <circle cx="16" cy="16" r="8.9"/>
    </g>
    <g id="Layer_2-2" data-name="Layer_2">
      <text class="cls-6" transform="translate(6.1 26.1)"><tspan x="0" y="0">Tobias Andri</tspan><tspan x="12.3" y="5.1">Gasser</tspan></text>
    </g>
  </g>
</svg>